/* XPM */
static char * chromium_browser_xpm[] = {
"16 16 165 2",
"  	c None",
". 	c #5973A2",
"+ 	c #486598",
"@ 	c #48679D",
"# 	c #47669D",
"$ 	c #46659A",
"% 	c #476599",
"& 	c #48679C",
"* 	c #546373",
"= 	c #5872A2",
"- 	c #4E6BA0",
"; 	c #2A4D8C",
"> 	c #294C8C",
", 	c #2C508E",
"' 	c #355C9D",
") 	c #72A5E3",
"! 	c #8397B1",
"~ 	c #9CA7C0",
"{ 	c #204687",
"] 	c #627CAA",
"^ 	c #61708F",
"/ 	c #65718C",
"( 	c #667BA2",
"_ 	c #5774A5",
": 	c #254888",
"< 	c #2B4F8E",
"[ 	c #6FA9EE",
"} 	c #9DBCE3",
"| 	c #B6ACAB",
"1 	c #7388AD",
"2 	c #3D4557",
"3 	c #457098",
"4 	c #3F74AB",
"5 	c #3D5163",
"6 	c #5D6C8B",
"7 	c #647EAB",
"8 	c #2A4C8A",
"9 	c #284B8A",
"0 	c #426094",
"a 	c #5F9CE5",
"b 	c #4D94EA",
"c 	c #6FAAF2",
"d 	c #93B0D3",
"e 	c #696D76",
"f 	c #368CC4",
"g 	c #59A5F0",
"h 	c #75B5F3",
"i 	c #449DEF",
"j 	c #2D7AAD",
"k 	c #5D6274",
"l 	c #394766",
"m 	c #2D416B",
"n 	c #2B4983",
"o 	c #5EA0F0",
"p 	c #5F9FED",
"q 	c #B4D1F3",
"r 	c #3A5367",
"s 	c #3597DD",
"t 	c #6CABED",
"u 	c #A1D1F2",
"v 	c #60A4EC",
"w 	c #3C97D3",
"x 	c #828E98",
"y 	c #CBD2DA",
"z 	c #9C9DA1",
"A 	c #615B5A",
"B 	c #565759",
"C 	c #5A9CEC",
"D 	c #4F95EA",
"E 	c #AACCF4",
"F 	c #46505E",
"G 	c #197CBD",
"H 	c #3A95E6",
"I 	c #5AA2EB",
"J 	c #3293E6",
"K 	c #35749D",
"L 	c #848385",
"M 	c #CBD4DF",
"N 	c #C7D1DC",
"O 	c #BFC7D1",
"P 	c #8E9297",
"Q 	c #5E9DE9",
"R 	c #4D93E8",
"S 	c #4B93E9",
"T 	c #6BA5EC",
"U 	c #7C8490",
"V 	c #394E66",
"W 	c #1572AC",
"X 	c #107EC3",
"Y 	c #1C6694",
"Z 	c #353538",
"` 	c #B7B9BC",
" .	c #C5D0DB",
"..	c #C2CBD5",
"+.	c #B7BEC7",
"@.	c #9FA3A9",
"#.	c #639FE6",
"$.	c #4D93E7",
"%.	c #4D93EA",
"&.	c #4B92E9",
"*.	c #8BB7EB",
"=.	c #7C8696",
"-.	c #514D50",
";.	c #393638",
">.	c #534D4D",
",.	c #A9A8AA",
"'.	c #D7DFE8",
").	c #C5CFDA",
"!.	c #BEC7D1",
"~.	c #B2B8C0",
"{.	c #9CA0A4",
"].	c #6194CF",
"^.	c #4D90E0",
"/.	c #4D94E9",
"(.	c #4893ED",
"_.	c #7A97BF",
":.	c #86807E",
"<.	c #E8ECF0",
"[.	c #E3E9EF",
"}.	c #CBD5DF",
"|.	c #C6D0DB",
"1.	c #C1CBD5",
"2.	c #B9C0C9",
"3.	c #AAAFB5",
"4.	c #9B9DA1",
"5.	c #5983B4",
"6.	c #5993D7",
"7.	c #4C93E7",
"8.	c #607390",
"9.	c #9D9A9A",
"0.	c #D0DBE6",
"a.	c #CCD7E2",
"b.	c #C8D3DE",
"c.	c #C4CDD8",
"d.	c #BCC5CF",
"e.	c #B1B7BE",
"f.	c #B1B4B9",
"g.	c #6B97CB",
"h.	c #5491DA",
"i.	c #3E5A7F",
"j.	c #B9B7BA",
"k.	c #CDD8E4",
"l.	c #CBD6E2",
"m.	c #C9D3DE",
"n.	c #C7D0DB",
"o.	c #BEC7D0",
"p.	c #B3B9C0",
"q.	c #B6BABF",
"r.	c #767779",
"s.	c #6C94C2",
"t.	c #5D8CC2",
"u.	c #818A97",
"v.	c #BEC6CF",
"w.	c #BBC1C8",
"x.	c #BBBFC4",
"y.	c #8B8E90",
"z.	c #7891AD",
"A.	c #7094C0",
"B.	c #6C7581",
"C.	c #CBD3DD",
"D.	c #C7CFD8",
"E.	c #C5CBD3",
"F.	c #C4C9D0",
"G.	c #485D77",
"H.	c #89929B",
"                                ",
"          . + @ # $ % &         ",
"      * = - ; ; > ; ; , '       ",
"    ) ! ~ { ] ^ / ( _ : ; <     ",
"    [ } | 1 2 3 4 5 6 7 8 9 0   ",
"  a b c d e f g h i j k l m n   ",
"  o b p q r s t u v w x y z A B ",
"  C b D E F G H I J K L M N O P ",
"  Q R S T U V W X Y Z `  ...+.@.",
"  #.$.%.&.*.=.-.;.>.,.'.).!.~.{.",
"  ].^.$./.(._.:.<.[.}.|.1.2.3.4.",
"  5.6.^.7.8.9.0.a.b.N c.d.e.f.  ",
"    g.h.i.j.k.l.m.n.c.o.p.q.r.  ",
"      s.t.u.0.N )...v.w.x.y.    ",
"        z.A.B.C.D.E.F.f.        ",
"              G.H.              "};
