/* XPM */
static char * fetion_xpm[] = {
"16 16 174 2",
"  	c None",
". 	c #76C44F",
"+ 	c #78C452",
"@ 	c #6CBE46",
"# 	c #58B02D",
"$ 	c #349505",
"% 	c #77C84E",
"& 	c #ABE08F",
"* 	c #AAE18C",
"= 	c #A6DF88",
"- 	c #94D573",
"; 	c #7CC658",
"> 	c #5FAE37",
", 	c #2E8C02",
"' 	c #2C8200",
") 	c #76C94B",
"! 	c #A2E07F",
"~ 	c #AAE58A",
"{ 	c #AAE58B",
"] 	c #A3E282",
"^ 	c #91DA6C",
"/ 	c #78CC4F",
"( 	c #5AB42F",
"_ 	c #36940A",
": 	c #297F00",
"< 	c #277500",
"[ 	c #49B215",
"} 	c #84D45A",
"| 	c #93E069",
"1 	c #9CE475",
"2 	c #9AE274",
"3 	c #91DF68",
"4 	c #80D754",
"5 	c #6ACA3A",
"6 	c #4CB31A",
"7 	c #329401",
"8 	c #2A7E00",
"9 	c #277300",
"0 	c #040C00",
"a 	c #4DB31A",
"b 	c #70CC3E",
"c 	c #7DD64C",
"d 	c #84DA54",
"e 	c #81D952",
"f 	c #78D547",
"g 	c #67CC34",
"h 	c #51BF1A",
"i 	c #3AAC02",
"j 	c #2F9600",
"k 	c #268000",
"l 	c #175000",
"m 	c #C37C1E",
"n 	c #673F0F",
"o 	c #308E00",
"p 	c #379F02",
"q 	c #51B91B",
"r 	c #5EC427",
"s 	c #63C82C",
"t 	c #5FC729",
"u 	c #56C41F",
"v 	c #47BD0B",
"w 	c #39B200",
"x 	c #2A8E00",
"y 	c #3A6200",
"z 	c #685200",
"A 	c #845B13",
"B 	c #EA8B20",
"C 	c #70410F",
"D 	c #1D7100",
"E 	c #329500",
"F 	c #37A300",
"G 	c #3CAE03",
"H 	c #3BB004",
"I 	c #446403",
"J 	c #9D8400",
"K 	c #A17A00",
"L 	c #BC7900",
"M 	c #E28600",
"N 	c #FE9A00",
"O 	c #FFA200",
"P 	c #924F11",
"Q 	c #B96518",
"R 	c #824010",
"S 	c #3C2D0B",
"T 	c #836B17",
"U 	c #1C5D00",
"V 	c #298700",
"W 	c #278300",
"X 	c #2A5803",
"Y 	c #190E00",
"Z 	c #BB7700",
"` 	c #F39700",
" .	c #F29800",
"..	c #F39800",
"+.	c #F99D00",
"@.	c #A35F04",
"#.	c #B24917",
"$.	c #E06D1D",
"%.	c #873C10",
"&.	c #523E0E",
"*.	c #FFC92F",
"=.	c #F1A92A",
"-.	c #CD8C22",
";.	c #E39826",
">.	c #B4791F",
",.	c #E88701",
"'.	c #845100",
").	c #754A00",
"!.	c #AD6D00",
"~.	c #C37D00",
"{.	c #A26002",
"].	c #9D3311",
"^.	c #B34616",
"/.	c #B84C17",
"(.	c #792A10",
"_.	c #715213",
":.	c #BC851E",
"<.	c #B57C1D",
"[.	c #A9701A",
"}.	c #A86E1C",
"|.	c #D37600",
"1.	c #ED8901",
"2.	c #F48601",
"3.	c #683602",
"4.	c #AE4F0A",
"5.	c #DD5811",
"6.	c #A43812",
"7.	c #9C3614",
"8.	c #DA471C",
"9.	c #74200F",
"0.	c #795314",
"a.	c #E89B24",
"b.	c #EE9A25",
"c.	c #F49924",
"d.	c #B36E1B",
"e.	c #BB6003",
"f.	c #F07F03",
"g.	c #5E3101",
"h.	c #BF5A08",
"i.	c #DE600E",
"j.	c #D55013",
"k.	c #DB4519",
"l.	c #572B0B",
"m.	c #4D3609",
"n.	c #784B12",
"o.	c #945915",
"p.	c #AF6317",
"q.	c #C76E1A",
"r.	c #994607",
"s.	c #964706",
"t.	c #843C07",
"u.	c #E2630E",
"v.	c #D75412",
"w.	c #D54916",
"x.	c #B13215",
"y.	c #144F00",
"z.	c #432608",
"A.	c #DE7A1C",
"B.	c #DF721D",
"C.	c #B25E17",
"D.	c #572306",
"E.	c #4F2006",
"F.	c #E45C11",
"G.	c #E25215",
"H.	c #C34214",
"I.	c #6A430B",
"J.	c #124E00",
"K.	c #1A5A00",
"L.	c #144200",
"M.	c #411706",
"N.	c #83310D",
"O.	c #433805",
"P.	c #185500",
"Q.	c #1E5900",
"                                ",
"            . + @ # $           ",
"        % & * = - ; > , '       ",
"      ) ! ~ { ] ^ / ( _ : <     ",
"    [ } | 1 2 3 4 5 6 7 8 9 0   ",
"    a b c d e f g h i j k l m n ",
"  o p q r s t u v w x y z A B C ",
"  D E F G H I J K L M N O P Q R ",
"S T U V W X Y Z `  ...+.@.#.$.%.",
"&.*.=.-.;.>.,.'.).!.~.{.].^./.(.",
"  _.:.<.[.}.|.1.2.3.4.5.6.7.8.9.",
"  0.a.b.c.d.e.f.g.h.i.j.k.l.m.  ",
"    n.o.p.q.r.s.t.u.v.w.x.y.    ",
"    z.A.B.C.D.E.F.G.H.I.J.      ",
"          K.L.M.N.O.P.Q.        ",
"                                "};
