/* XPM */
static char * geany_xpm[] = {
"16 16 94 2",
"  	c None",
". 	c #C5C7C1",
"+ 	c #D2D4CF",
"@ 	c #FBFBFB",
"# 	c #F9F9F7",
"$ 	c #F6F6F5",
"% 	c #F8F0BD",
"& 	c #EDDC6C",
"* 	c #D9BD2D",
"= 	c #E3CC2E",
"- 	c #EFDE54",
"; 	c #D5BA2B",
"> 	c #D9BE3E",
", 	c #F5EDB9",
"' 	c #F3E58B",
") 	c #F7EA84",
"! 	c #F3E363",
"~ 	c #E6D25C",
"{ 	c #CBAA0B",
"] 	c #E4CC5C",
"^ 	c #EAD444",
"/ 	c #BBBBA7",
"( 	c #DCC34A",
"_ 	c #FAEF95",
": 	c #FAF19D",
"< 	c #FBED7C",
"[ 	c #D3B404",
"} 	c #D7BB09",
"| 	c #F0D912",
"1 	c #EED505",
"2 	c #F5E56C",
"3 	c #C5A101",
"4 	c #C6A618",
"5 	c #D7BD3D",
"6 	c #EADB86",
"7 	c #DCC33B",
"8 	c #ECDD91",
"9 	c #F7EB94",
"0 	c #F3E25D",
"a 	c #F1DF54",
"b 	c #D6BA22",
"c 	c #D2B324",
"d 	c #F1E6A3",
"e 	c #E4B370",
"f 	c #F7EA7A",
"g 	c #FAEC74",
"h 	c #FBE962",
"i 	c #F4DE2B",
"j 	c #DBA106",
"k 	c #E2C602",
"l 	c #D7B912",
"m 	c #F4E89B",
"n 	c #C54F42",
"o 	c #CD6E3D",
"p 	c #D27646",
"q 	c #DE9E1F",
"r 	c #C34B32",
"s 	c #C25C16",
"t 	c #D2B52A",
"u 	c #ECCC67",
"v 	c #FAED82",
"w 	c #E3807F",
"x 	c #C72D1F",
"y 	c #E0B200",
"z 	c #DCC10A",
"A 	c #E1C941",
"B 	c #F7E86D",
"C 	c #DC9234",
"D 	c #EDC927",
"E 	c #EED50A",
"F 	c #E2CB4D",
"G 	c #CEAE12",
"H 	c #DCC242",
"I 	c #F6EA89",
"J 	c #FAE748",
"K 	c #F3DE31",
"L 	c #F6E147",
"M 	c #E0C633",
"N 	c #FCE94F",
"O 	c #EDD73D",
"P 	c #E8CC00",
"Q 	c #DCBD02",
"R 	c #CBAC1A",
"S 	c #FBEB6B",
"T 	c #F5E356",
"U 	c #EAD94B",
"V 	c #E3CD3C",
"W 	c #E5D127",
"X 	c #EEDA2C",
"Y 	c #E7D356",
"Z 	c #A68800",
"` 	c #AF9104",
" .	c #B29202",
"..	c #9E8203",
"  . +                           ",
"  @ # $                         ",
"  @ $ $                         ",
"+ @ #                           ",
". # #         % &       * = - ; ",
"  @ $   > , ' ) ! ! ~ { ]     ^ ",
"  # / ( _ : < [ } | 1 2 3     * ",
"  4 5 6 7 8 9 < 0 a ~ [ 3     b ",
"  c d 6 e f g h i | j k 3     l ",
"    m 9 n o < p q | r s       } ",
"    t ! u v v w x | y ^       z ",
"      A B f v C D | E * > F G   ",
"        H I v J K L M (         ",
"      9 N O 3 3 3 3 P Q F       ",
"      R I S T U V W X Y Z       ",
"            `  .` ..            "};
