/* XPM */
static char * seamonkey_xpm[] = {
"16 16 111 2",
"  	c None",
". 	c #26289C",
"+ 	c #3B41A8",
"@ 	c #3F3BA4",
"# 	c #3D3AA3",
"$ 	c #28299E",
"% 	c #0F1290",
"& 	c #3C39A2",
"* 	c #393FA6",
"= 	c #31309F",
"- 	c #8A8AC6",
"; 	c #F6FBFE",
"> 	c #FEFFFC",
", 	c #2E37A4",
"' 	c #2D2D9B",
") 	c #ADB0DA",
"! 	c #6EB6FF",
"~ 	c #D2EAFC",
"{ 	c #5DAFFF",
"] 	c #8E8ECA",
"^ 	c #131E99",
"/ 	c #2E2E9C",
"( 	c #22269A",
"_ 	c #EFF7FF",
": 	c #B7DBFF",
"< 	c #ACD6FF",
"[ 	c #94C9FC",
"} 	c #8583C5",
"| 	c #24279B",
"1 	c #2A2198",
"2 	c #161F9A",
"3 	c #7071BD",
"4 	c #5FB1FF",
"5 	c #99CEFF",
"6 	c #6BB3FE",
"7 	c #A8D2FA",
"8 	c #FCFAFE",
"9 	c #00088E",
"0 	c #00068D",
"a 	c #282097",
"b 	c #0D1D97",
"c 	c #131492",
"d 	c #DDE1F2",
"e 	c #79B8FE",
"f 	c #55A9F8",
"g 	c #B5D9FD",
"h 	c #3139A6",
"i 	c #8785E8",
"j 	c #8586E2",
"k 	c #6C70C9",
"l 	c #676BC4",
"m 	c #4548B1",
"n 	c #181694",
"o 	c #73B3F8",
"p 	c #7BBDFB",
"q 	c #4142B8",
"r 	c #7B78E1",
"s 	c #6566E0",
"t 	c #8886FE",
"u 	c #9396FF",
"v 	c #979DFF",
"w 	c #D8D7FC",
"x 	c #56A8FE",
"y 	c #77BAF8",
"z 	c #D0E4FE",
"A 	c #80C2FF",
"B 	c #8C8CFD",
"C 	c #827FFD",
"D 	c #1B19C9",
"E 	c #0E2BEC",
"F 	c #1408E5",
"G 	c #0000E0",
"H 	c #383BEE",
"I 	c #6FB7FF",
"J 	c #9CCBF9",
"K 	c #A5CEF7",
"L 	c #E4E3FB",
"M 	c #1B21E8",
"N 	c #0302B3",
"O 	c #0000E9",
"P 	c #F6F6FF",
"Q 	c #5AAAFF",
"R 	c #83BEF7",
"S 	c #8FC4F7",
"T 	c #1521DE",
"U 	c #312BE9",
"V 	c #ECF0FF",
"W 	c #B9DAF7",
"X 	c #67AFF9",
"Y 	c #2E2AE8",
"Z 	c #2532EB",
"` 	c #110DA7",
" .	c #1700A9",
"..	c #0804E3",
"+.	c #DDE0FE",
"@.	c #41A0FF",
"#.	c #71BBFF",
"$.	c #7472EF",
"%.	c #3D33E9",
"&.	c #3F36E4",
"*.	c #46A5FF",
"=.	c #908DF1",
"-.	c #473BE9",
";.	c #C7E3FB",
">.	c #D3E7FF",
",.	c #CCCCE3",
"'.	c #3339EB",
").	c #363AED",
"!.	c #292CCF",
"~.	c #2D23CA",
"{.	c #2415AF",
"                                ",
"            . + @ # $ %         ",
"        & @ * # & = - ; >       ",
"      , & & , ' ' ) ! ~ { ]     ",
"    ^ & = / $ ( ( _ : < [ } %   ",
"    = ' $ | 1 2 3 4 5 6 7 8 9 0 ",
"  % $ 1 a a b c d { e f g : 0 9 ",
"  h i j k l m n _ ! { o g p q r ",
"  s t t u v u w 4 { x y z A B C ",
"  D E F F G H _ { I o J K L M E ",
"  N F F O O P Q ! y R S _ T U E ",
"    O O O V Q 6 R W X > M Y Z ` ",
"     ...+.@.y #.W > $.Y Y %.&.  ",
"      > *.8 =.-.M Y Y %.&.&.    ",
"  > ;.>.,.M Y Y Z Z '.).!.      ",
"  8 >       ` ~.~.!.{.          "};
