/* XPM */
static char * xterm_32x32_xpm[] = {
"16 16 34 1",
" 	c None",
".	c #FFFFFF",
"+	c #BFBFBF",
"@	c #808080",
"#	c #404040",
"$	c #000000",
"%	c #E6E6E6",
"&	c #E3E3E3",
"*	c #CDCDCD",
"=	c #787878",
"-	c #E0E0E0",
";	c #E4E4E4",
">	c #B0B0B0",
",	c #ACACAC",
"'	c #D8D8D8",
")	c #9C9C9C",
"!	c #B6B6B6",
"~	c #A6A6A6",
"{	c #C1C1C1",
"]	c #A8A8A8",
"^	c #D6D6D6",
"/	c #FAFAFA",
"(	c #B2B2B2",
"_	c #A7A7A7",
":	c #D7D7D7",
"<	c #919191",
"[	c #AFAFAF",
"}	c #B8B8B8",
"|	c #9E9E9E",
"1	c #A0A0A0",
"2	c #C0C0C0",
"3	c #A3A3A3",
"4	c #E5E5E5",
"5	c #A9A9A9",
"..+@@@@@@@@@@@..",
"..@@@@@@@@@@@+#+",
"..$%&*........@@",
"..$.=-........@@",
"..$;>,........@@",
"..$...........@@",
"..$')!~{]^>/(.@@",
"..$._:<[<}|@1.@@",
"..$._:<[23[45.@+",
"..$...........@@",
"..@@@@@@@@@@@+#.",
"..+@@@@@@@@@@@..",
"..@@@@@@@@@@@@@.",
".@.@.@+++++.@@..",
".+@.@.+++++@.++.",
"@@@@@@@@@@@@#+.."};
