/* XPM */
static char *geany1[] = {
/* columns rows colors chars-per-pixel */
"32 32 231 2",
"   c black",
".  c #B6B61F1F1B1B",
"X  c #B6B628280E0E",
"o  c #B7B720201919",
"O  c #BDBD29292525",
"+  c #8E8E75750000",
"@  c #BABA40400606",
"#  c #BDBD43432A2A",
"$  c #C7C72D2D1F1F",
"%  c #C2C235352F2F",
"&  c #C5C53A3A3838",
"*  c #C2C243431212",
"=  c #C5C551511212",
"-  c #C2C25C5C1616",
";  c #C6C641413838",
":  c #C3C34B4B3232",
">  c #C9C974740000",
",  c #CFCF7A7A1010",
"<  c #CD4D6EEF3DBE",
"1  c #CFCF77772424",
"2  c #C5C54F4F4242",
"3  c #CFCF5E5E5959",
"4  c #D2D276764646",
"5  c #D3D37D7D5D5D",
"6  c #E3E354545454",
"7  c #E0E05D5D5BDC",
"8  c #E9E967676767",
"9  c #F9F97D7D7D7D",
"0  c #9E9E82820303",
"q  c #A3A387870202",
"w  c #A6A688880000",
"e  c #ACAC8E8E0383",
"r  c #AFAF91910404",
"t  c #B25C92920202",
"y  c #B0B094940E0E",
"u  c #BFBFA3A32222",
"i  c #CFCF8C8C0909",
"p  c #C1C19E9E0505",
"a  c #DEDE9E9E1F1F",
"s  c #D5D581812828",
"d  c #DCDC92923434",
"f  c #C5DCA1FE0176",
"g  c #C7C7A5A50A0A",
"h  c #C948A66602C3",
"j  c #CE78AE030359",
"k  c #CB75AA540BB6",
"l  c #C6C6A6A61818",
"z  c #C7C7A8A81818",
"x  c #CECEAE6E1212",
"c  c #CB75AC561A1A",
"v  c #CFCFB5B50D0D",
"b  c #CFCFB0B01717",
"n  c #DBDBA1A10606",
"m  c #DDDDA0A01616",
"M  c #D36CB41A046B",
"N  c #D2D2B3B30D0D",
"B  c #D757BBBB0989",
"V  c #D9D9B4B40000",
"C  c #DC1BBDBD0202",
"Z  c #DCDCBFBF0B0B",
"A  c #D3D3B5351414",
"S  c #D3A8B5351AF0",
"D  c #D72CB9631268",
"F  c #D6D6B9B91D1D",
"G  c #DADABDBD1D1D",
"H  c #CACAAFAF2E2E",
"J  c #DADAABAB2323",
"K  c #D227B3B3247A",
"L  c #D29FB54E2A5D",
"P  c #D680BA6422CD",
"I  c #D5AABA642B81",
"U  c #D92EBD122D2D",
"Y  c #D72CBC113434",
"T  c #D7D7BD8A3D0A",
"R  c #D958BEBE34B4",
"E  c #D92EBEBE3E3E",
"W  c #E0E0B2B20000",
"Q  c #E4E4ABAB2B2B",
"!  c #D7D78B8B5353",
"~  c #D9D994945050",
"^  c #D6D6BD3D44C4",
"/  c #D4D4BCBC4A4A",
"(  c #D9D9BFBF4141",
")  c #C3C3B8B87A7A",
"_  c #E3E380807F7F",
"`  c #E0E0A4A45B5B",
"'  c #E8E8B9B96262",
"]  c #E4E4B3B37070",
"[  c #DEDEC2C20505",
"{  c #DC86C1C10A0A",
"}  c #DDDDC2C21F1F",
"|  c #DEDEC4C42828",
" . c #DE1DC4443474",
".. c #DCA9C3293B6E",
"X. c #E2A2C6450242",
"o. c #E48ECB200056",
"O. c #E8E8CCCC0000",
"+. c #E4E4CA491212",
"@. c #E5E5CBCB1919",
"#. c #EAEAC5C51D1D",
"$. c #EEEECFCF1E1E",
"%. c #EE7CD57F05B0",
"&. c #EE2DD5D50ACB",
"*. c #ECECD5D51414",
"=. c #E8E8D2D21A1A",
"-. c #EFEFD8D81515",
";. c #F0F0D90B125F",
":. c #F3F3DCDC1F1F",
">. c #E6E6CECE2020",
",. c #E3E3CCCC2E2E",
"<. c #EDEDC9C92727",
"1. c #E0E0C6C63333",
"2. c #E0E0C7C73E3E",
"3. c #E338CD773434",
"4. c #E362CD4C3CBC",
"5. c #E5E5D1D12727",
"6. c #E8E8D4D42626",
"7. c #EEEED8D82626",
"8. c #EEEEDADA2C2C",
"9. c #EDEDD7573D3D",
"0. c #F373DCDC2222",
"q. c #F4F4DEDE2BEC",
"w. c #F3F3DEDE3131",
"e. c #F5F5E0E03434",
"r. c #F4F4E1E13F3F",
"t. c #F8F8E3E33B3B",
"y. c #DC00C29D42FA",
"u. c #DC31C36D4AF5",
"i. c #DA59C2C252D2",
"p. c #DDDDC7C75D5D",
"a. c #DF89C8C85555",
"s. c #DEDEC9C95D5D",
"d. c #E1E1C9C94141",
"f. c #E27BCBFE4D1A",
"g. c #E0E0CBCB5050",
"h. c #E48ECC215C06",
"j. c #EFEFC9C95959",
"k. c #E5E5D4D44545",
"l. c #EAEAD4D44444",
"z. c #E9E9D52A4BF6",
"x. c #EE6ED95841C2",
"c. c #EAEAD9D94B4B",
"v. c #E7E7D37D56AC",
"b. c #E6E6D2275C06",
"n. c #EAEAD6D65959",
"m. c #EFEFDEDE5454",
"M. c #EF55DC755DC4",
"N. c #F3F3D3D34040",
"B. c #F2F2DCDC4040",
"V. c #F1B1DF1E5454",
"C. c #F0F0DEDE5858",
"Z. c #ECECCCCC6767",
"A. c #EDEDCBCB7474",
"S. c #E58FD22764BA",
"D. c #E8E8D5D56E6E",
"F. c #EBEBDA596666",
"G. c #ED6CDC5B6C2C",
"H. c #E767D6567C7C",
"J. c #E8E8D7D77A7A",
"K. c #ECECDC867CD2",
"L. c #F2F2D3D37272",
"P. c #F6F6E1E14747",
"I. c #F3F3E1E149C9",
"U. c #FAFAE7E74848",
"Y. c #FCC9E9B64F1C",
"T. c #F5F5E3E35656",
"R. c #F3B3E2215D5D",
"E. c #FCA6EA945D07",
"W. c #F39DE38D63B9",
"Q. c #F575E5E56CED",
"!. c #F7F7E8E86D6D",
"~. c #F8F8E7E76464",
"^. c #FBFBE9E96262",
"/. c #FBFBEBEB6B6B",
"(. c #F41EE4B97449",
"). c #F474E4237D3D",
"_. c #F6F6E8E871F1",
"`. c #F7F7EAEA7A7A",
"'. c #FAA4EC0874CA",
"]. c #FB35ED4F7C7C",
"[. c #B3B3AEAE9090",
"{. c #BBBBBBBBA7A7",
"}. c #BBBBBEBEB7B7",
"|. c #BFBFC2C2BBBB",
" X c #C36DC56FBD67",
".X c #E6E6D7D78888",
"XX c #EAEADBDB8686",
"oX c #EDEDDEDE8E8E",
"OX c #ECECDDDD9191",
"+X c #EFEFE1608484",
"@X c #EEEEE1E19696",
"#X c #F373E5648585",
"$X c #F372E5648B8B",
"%X c #F777EAEA8484",
"&X c #F6F6EA698908",
"*X c #FAEDEDA082DC",
"=X c #F9F9ED428B8B",
"-X c #F1F1E6669616",
";X c #F7F7EBEB9494",
":X c #F473E8E89B1B",
">X c #FA39EFAF9555",
",X c #F9F9EFEF9A9A",
"<X c #FAFAF0F09595",
"1X c #FAFAF1309D1D",
"2X c #F1F1E6E6A3A3",
"3X c #F5F5EBEBACAC",
"4X c #F8F8EFEFA0A0",
"5X c #F4F4EC6CB535",
"6X c #F5F5EDEDB938",
"7X c #FA79F170A2A2",
"8X c #FBFBF2F2ABAB",
"9X c #FBFBF3F3B3B3",
"0X c #F8F8F0F0BDBD",
"qX c #C51AC771C16B",
"wX c #CACACCCCC7C7",
"eX c #CDCDCFCFC9C9",
"rX c #CF8FD191CC8C",
"tX c #D21AD441CF86",
"yX c #D9D9DBDBD7D7",
"uX c #DEDEDFDFDCDC",
"iX c #DFDFE0E0DCDC",
"pX c #E0E0E1E1DEDE",
"aX c #E4E4E63BE338",
"sX c #E8E8E9E9E6E6",
"dX c #EBEBECECEAEA",
"fX c #F0F0EFEFEAEA",
"gX c #F1F1F1F1EFEF",
"hX c #F6B6F6B6F5E0",
"jX c #F9A3F94EF7F7",
"kX c #FB7AFB7AFB18",
"lX c None",
/* pixels */
"lXlXqXtXtXrXlXlXlXlXlXlXlXlXlXlXlXlXlXlXlXlXlXlXlXlXlXlXlXlXlXlX",
"lX}.dXkXkXjXyXlXlXlXlXlXlXlXlXlXlXlXlXlXlXlXlXlXlXlXlXlXlXlXlXlX",
"lXpXkXkXjXjXhXrXlXlXlXlXlXlXlXlXlXlXlXlXlXlXlXlXlXlXlXlXlXlXlXlX",
"lXsXkXkXkXjXhXtXlXlXlXlXlXlXlXlXlXlXlXlXlXlXlXlXlXlXlXlXlXlXlXlX",
"lXaXkXjXhXhXhXeXlXlXlXlXlXlXlXlXlXlXlXlXlXlXlXlXlXlXlXlXlXlXlXlX",
"qXdXkXjXhXjXaX|.lXlXlXlXlXlXlXlXlXlXlXlXlXlXlXlXlXlXlXlXlXlXlXlX",
"tXkXkXkXjXuXlXlXlXlXlXlXlXlXlXlXlXlXlXlXlXlXlXlXlXlXlXlXlXlXlXlX",
"tXkXjXjXjXtXlXlXlXlXlXlXlXlXh f lXlXlXlXlXlXlXlXlXS S.J.f.k lXlX",
"qXaXjXkXjXeXlXlXlXlXlXlXlXE 0X9XG.x lXlXlXlXlXlXU XX,.+.m.).I lX",
"lX|.kXkXjXtXlXlXlXlXc p./ XX1X]._.R g.L lXlXlXf D.E lXh M @.G.S ",
"lXqXkXkXhXwXlXlXE .X6X6X$XS.%XI.W.2.W._.b.y.k b h.lXlXlXlXh l.Y ",
"lXaXkXkXwXlXlXi.6X7X7X7X>X4.G.].2.@.;.&.7.C.u.h h lXlXlXlXlX .I ",
"lXuXjXfX{.lXu.5X>X=X1X1X].q.M j B @.;.&.%.o.Q...f lXlXlXlXlXU P ",
"lX)  X[.H lXJ.a.3X8X;X;X*XE.w.q.0.0.;.%.*.C.h.v.f lXlXlXlXlXI P ",
"lXlXl / T lXXX)...h.OX-X;X=X]./.R.T.V.F.b.A M M.f lXlXlXlXlXP S ",
"lXlXE 3XH.p #X>X).h.g.f.y.y.E E R U G { C V [ M.f lXlXlXlXlXF A ",
"lXlXK oX2XL XX4X] # `.].'./.^.P.q.0.;.%.n X X.C.f lXlXlXlXlXD A ",
"lXlXlXJ.:X@X:X,X5 & ` ].].'.j.s q.0.;.%.1 % i C.f lXlXlXlXlXD N ",
"lXlXlXK :XG.;X=X2 7 < *X].].4 $ a 0.;.%.: 7 - z.lXlXlXlXlXlXB M ",
"lXlXlXp K.(.W._.! . A.*X*X' 7 8 * $.;.&., . J d.lXlXlXlXlXlX[ M ",
"lXlXlXlXL #XW.W.Z.~ *X*X*X< _ _ $ m ;.%.W > l.I lXlXlXlXlXD { lX",
"lXlXlXlXlXy.=XW.Q.(.*X*X*XL.; 6 = $.;.%.O.X.n.x lXlXlXF 3.} j lX",
"lXlXlXlXlXlXd.#X!.Q.`.].*X*Xd X <.:.;.%.&.V.U Y E y.f.d.x lXlXlX",
"lXlXlXlXlXlXlXY %X*X'.'.].].N.Q q.:.;.%.V.2.c ( E E lXlXlXlXlXlX",
"lXlXlXlXlXlXlXlXy.b.&X=X*X/.U.t.w.e.P.C.1. .u.lXlXlXlXlXlXlXlXlX",
"lXlXlXlXlXlXg.$X^.9. ...G.*X*X*X!.R...b o.+.4.F.c lXlXlXlXlXlXlX",
"lXlXlXlXlXf ;X^.Y.Y.9.x f h f f f f f j O.o.C | f.lXlXlXlXlXlXlX",
"lXlXlXlXlXp *X].Y.Y.Y.9.F k h f f k v { o.X.{ c.L lXlXlXlXlXlXlX",
"lXlXlXlXlXlXc S.&X]./.E.T.m.c.k.4.3.5.6.8.9.v.I w lXlXlXlXlXlXlX",
"lXlXlXlXlXlXlXlXH E v.(.].*X*X*X_.Q.R.c.R L y lXlXlXlXlXlXlXlXlX",
"lXlXlXlXlXlXlXlXlXlXlX0 r r t t r r 0 + lXlXlXlXlXlXlXlXlXlXlXlX",
"lXlXlXlXlXlXlXlXlXlXlXlXlXlXlXlXlXlXlXlXlXlXlXlXlXlXlXlXlXlXlXlX"
};
